<svg width="232" height="232" viewBox="0 0 232 232" fill="none" xmlns="http://www.w3.org/2000/svg">
<path d="M192.633 154.266C171.25 154.266 154 137.016 154 115.633V77H192.633C214.016 77 231.266 94.25 231.266 115.633C231.266 137.016 214.016 154.266 192.633 154.266Z" fill="#1ABCFE"/>
<path d="M115.633 77.2656C137.016 77.2656 154.266 60.0156 154.266 38.6328V0H115.633C94.25 0 77 17.25 77 38.6328C77 60.0156 94.25 77.2656 115.633 77.2656Z" fill="#FF7262"/>
<path d="M115.633 231.266C137.016 231.266 154.266 214.016 154.266 192.633V154H115.633C94.25 154 77 171.25 77 192.633C77 214.016 94.25 231.266 115.633 231.266Z" fill="#FFAAE7"/>
<path d="M0.125 192.898C0.125 171.516 17.375 154.266 38.7578 154.266H77.3906V231.531H38.7578C17.375 231.531 0.125 214.281 0.125 192.898Z" fill="#0ACF83"/>
<path d="M0.125 115.633C0.125 94.25 17.375 77 38.7578 77H77.3906V154.266H38.7578C17.375 154.266 0.125 137.016 0.125 115.633Z" fill="#A259FF"/>
<path d="M0 38.6328C0 17.25 17.25 0 38.6328 0H77.2656V77.2656H38.6328C17.25 77.2656 0 60.0156 0 38.6328Z" fill="#F24E1E"/>
</svg>
